<?xml version="1.0" encoding="UTF-8"?>
<svg width="700pt" height="700pt" version="1.1" viewBox="0 0 700 550" xmlns="http://www.w3.org/2000/svg">
 <path d="m152.97 278.72c-4.3047 7.4219-5.2656 16.309-2.6953 24.5 4.2695 13.703 13.824 42.77 29.941 83.578 15.418 39.797 39.305 75.758 70 105.42 12.496 10.344 22.031 23.801 27.668 39.008 3.0977 14.141 15.504 24.273 29.977 24.5h180.07c15.785-0.050781 28.945-12.074 30.414-27.789 1.6992-13.598 5.0039-26.949 9.8867-39.762 10.203-30.434 22.891-68.25 22.891-167.12 0-27.176-0.94531-44.52-1.9414-62.859-1.207-22.066-2.5742-47.059-2.5742-95.023 1.3633-24.219-16.871-45.078-41.055-46.953-7.2266-0.59375-14.508 0.24609-21.422 2.4492l0.003907-34.18c-0.015625-25.762-20.895-46.621-46.656-46.637-7.3867 0.035157-14.648 1.8203-21.176 5.25-4.2695-25.359-28.297-42.453-53.656-38.184-22.434 3.7812-38.867 23.223-38.832 45.988v14.105c-6.3164-3.1836-13.301-4.8633-20.371-4.8984-25.742 0.035157-46.602 20.895-46.637 46.637v211.07l-0.66406-1.3125c-6.668-15.926-16.836-30.137-29.75-41.598-15.469-11.289-35.105-15.191-53.707-10.691-8.293 1.8711-15.449 7.1406-19.719 14.508zm22.75 13.125c0.57812-1.0156 1.5586-1.7344 2.6953-1.9766 11.289-2.8516 23.258-0.52344 32.656 6.3359 9.293 9.2227 16.641 20.195 21.664 32.289 4.8984 11.461 11.812 21.945 20.406 30.977 4.3906 3.4141 9.625 5.5469 15.156 6.1406 3.7266 0.4375 7.4727-0.73438 10.289-3.2188 2.8164-2.4844 4.4258-6.0547 4.4258-9.8164v-245.76c-0.33203-11.254 8.5234-20.648 19.773-20.984 11.254-0.33203 20.648 8.5234 20.984 19.773 0.015625 0.40234 0.015625 0.80469 0 1.1914v167.56c0 7.2461 5.8789 13.125 13.125 13.125 7.2461 0 13.125-5.8789 13.125-13.125l-0.003906-223.39c0-11.254 9.1172-20.387 20.387-20.387 11.254 0 20.387 9.1172 20.387 20.387v223.41c0 7.2461 5.8789 13.125 13.125 13.125 7.2461 0 13.125-5.8789 13.125-13.125l0.003907-189.89c0-11.254 9.1172-20.387 20.387-20.387 11.254 0 20.387 9.1172 20.387 20.387v201.06c0 7.2461 5.8789 13.125 13.125 13.125s13.125-5.8789 13.125-13.125v-138.25c5.8281-3.5352 12.566-5.2656 19.371-4.9688 10.395 1.0859 17.938 10.395 16.852 20.789 0 48.684 1.3828 74.059 2.6094 96.441 1.0156 18.762 1.9062 35 1.9062 61.441 0 94.5-11.934 130.15-21.523 158.78-5.5117 14.664-9.2383 29.941-11.113 45.5-0.14062 2.293-2.0117 4.1133-4.3047 4.1992l-180.04 0.003907c-2.3086-0.28125-4.1484-2.0664-4.4609-4.375-6.5117-19.863-18.375-37.539-34.301-51.066-28.316-27.16-50.312-60.219-64.453-96.828-15.75-40.023-25.113-68.391-29.277-81.762-0.41797-1.1875-0.28125-2.5156 0.38672-3.6016z"/>
</svg>
